<?xml version="1.0" standalone="no"?>
<!DOCTYPE svg PUBLIC "-//W3C//DTD SVG 1.1//EN" "http://www.w3.org/Graphics/SVG/1.1/DTD/svg11.dtd" >
<svg xmlns="http://www.w3.org/2000/svg" xmlns:xlink="http://www.w3.org/1999/xlink" version="1.1">
<metadata></metadata>
<defs>
<font id="heiti_sclight" horiz-adv-x="1265" >
<font-face units-per-em="2048" ascent="1626" descent="-422" />
<missing-glyph horiz-adv-x="409" />
<glyph horiz-adv-x="0" />
<glyph horiz-adv-x="682" />
<glyph unicode=" "  horiz-adv-x="409" />
<glyph unicode="&#x09;" horiz-adv-x="409" />
<glyph unicode="&#xa0;" horiz-adv-x="409" />
<glyph unicode="!" horiz-adv-x="614" d="M197 90q0 113 110 113q111 0 111 -113t-111 -113t-110 113zM219 1520h176l-28 -1108h-119z" />
<glyph unicode="&#x22;" horiz-adv-x="716" d="M117 1626h176l-29 -496h-119zM424 1626h176l-29 -496h-118z" />
<glyph unicode="#" d="M72 483v117h280l35 336h-270v117h284l48 467h116l-47 -467h293l47 467h117l-47 -467h266v-117h-281l-34 -336h268v-117h-281l-51 -483h-117l50 483h-291l-51 -483h-117l49 483h-266zM469 600h293l35 336h-293z" />
<glyph unicode="$" d="M133 219l100 103l29 -31q31 -31 70 -58q51 -35 108 -55q70 -25 148 -24v571q-45 16 -74 29q-41 14 -72 28q-80 37 -131 78q-129 98 -129 256q0 164 113 273t293 120v207h106v-205q86 0 168 -26q66 -20 125 -58q45 -29 80 -63l23 -23q8 -8 10 -12l-94 -100q-2 4 -9 10 q-8 10 -18 18q-27 29 -61 52q-45 29 -97 47q-61 20 -127 20v-528q92 -37 150 -68q78 -41 131 -86q127 -111 127 -276q0 -164 -113 -273q-111 -109 -295 -125v-237h-106v235q-109 4 -203 35q-78 25 -141 66q-47 29 -82 65q-12 12 -21 23zM336 1137q0 -94 55 -148 q49 -47 197 -106v491q-252 -23 -252 -237zM694 156q254 37 254 241q0 186 -254 295v-536z" />
<glyph unicode="%" horiz-adv-x="1638" d="M45 1137q0 174 76 276q88 117 268 117t268 -117q76 -102 76 -276q0 -175 -76 -277q-88 -117 -268 -117t-268 117q-76 102 -76 277zM168 1137q0 -276 221 -277q221 0 221 277q0 276 -221 276t-221 -276zM186 -6l1143 1573l103 -74l-1143 -1573zM905 350q0 174 76 277 q88 117 268 116q180 0 269 -116q76 -102 75 -277q1 -174 -75 -276q-88 -117 -269 -117q-180 0 -268 117q-76 102 -76 276zM1028 350q0 -276 221 -276t221 276q0 277 -221 277t-221 -277z" />
<glyph unicode="&#x26;" horiz-adv-x="1490" d="M82 410q0 301 260 413q-41 104 -41 221q0 225 119 359q127 143 358 143q135 0 238 -43q41 -16 78 -41q27 -16 61 -43l-82 -110q-29 23 -47 34q-29 18 -59 33q-80 35 -179 35q-334 0 -333 -375q0 -111 63 -229q51 -102 148 -207q78 -86 176 -166q78 -63 145 -106 q33 47 53 112q18 53 31 115q8 49 12 100l2 62h-233v135h588v-135h-215l-4 -70q-6 -59 -17 -117q-14 -74 -37 -137q-29 -76 -65 -131q35 -20 108 -57q117 -59 226 -96l-74 -136q-125 51 -229 105l-117 63q-78 -78 -180 -121q-115 -47 -256 -47q-231 0 -367 123 q-131 121 -131 314zM236 414q0 -133 88 -217q96 -88 260 -88q188 0 311 106q-307 196 -487 481q-172 -82 -172 -282z" />
<glyph unicode="'" horiz-adv-x="409" d="M117 1626h176l-29 -496h-119z" />
<glyph unicode="(" horiz-adv-x="614" d="M88 664q0 133 12 256q12 115 35 221q20 94 49 184q25 78 56 150q27 59 57 114q25 45 51 84l55 72l129 -78l-53 -74l-45 -80q-29 -53 -53 -110q-29 -68 -51 -139q-27 -82 -45 -170q-43 -203 -43 -430t43 -433q18 -88 45 -170q23 -72 51 -139q25 -57 53 -110q23 -43 45 -80 q10 -16 21 -29l16 -22q4 -8 10 -15l6 -8l-129 -78l-34 43l-21 31q-27 39 -51 84q-31 53 -57 115q-31 72 -56 149q-29 90 -49 184q-23 106 -35 222q-12 125 -12 256z" />
<glyph unicode=")" horiz-adv-x="614" d="M82 -342l6 8q6 6 10 15l17 22q10 12 20 29q23 37 45 80q29 53 53 110q29 68 52 139q27 82 45 170q43 205 43 433q0 227 -43 430q-18 88 -45 170q-23 72 -52 139q-25 57 -53 110l-45 80l-53 74l129 78l18 -21l37 -51q27 -39 51 -84q31 -55 58 -114q31 -72 55 -150 q29 -90 49 -184q23 -106 35 -221q12 -123 12 -256q0 -131 -12 -256q-12 -115 -35 -222q-20 -94 -49 -184q-25 -78 -55 -149q-27 -61 -58 -115q-25 -45 -51 -84l-55 -74z" />
<glyph unicode="*" horiz-adv-x="987" d="M82 1165l45 142l313 -123l-20 336h147l-20 -336l313 123l45 -142l-325 -82l215 -260l-121 -88l-180 285l-181 -285l-120 88l215 260z" />
<glyph unicode="+" d="M139 664v127h424v444h137v-444h424v-127h-424v-445h-137v445h-424z" />
<glyph unicode="," horiz-adv-x="614" d="M164 -203q6 2 22 19l39 43q51 68 51 123q-84 18 -83 118q0 123 120 123q121 0 121 -149q0 -80 -31 -152q-23 -57 -65 -106q-31 -35 -70 -64l-22 -18l-13 -6z" />
<glyph unicode="-" horiz-adv-x="593" d="M20 518v127h553v-127h-553z" />
<glyph unicode="." horiz-adv-x="614" d="M186 100q0 123 121 123t121 -123t-121 -123t-121 123z" />
<glyph unicode="/" horiz-adv-x="1024" d="M82 -379l737 2124l123 -41l-737 -2124z" />
<glyph unicode="0" d="M106 760q0 176 27 313q29 147 90 250q131 223 410 223t411 -223q59 -102 89 -250q27 -137 26 -313q1 -177 -26 -314q-29 -147 -89 -247q-133 -225 -411 -226q-279 0 -410 226q-61 100 -90 247q-27 137 -27 314zM260 760q0 -193 31 -326q27 -125 80 -198q88 -127 262 -127 t262 127q53 74 80 198q31 133 31 326q0 192 -31 325q-27 125 -80 201q-88 125 -262 125t-262 -125q-53 -76 -80 -201q-31 -133 -31 -325z" />
<glyph unicode="1" d="M256 1223q84 23 160 61q78 43 137 92q74 63 117 144h127v-1385h338v-135h-869v135h383v1129q-39 -43 -106 -78q-49 -25 -119 -47q-74 -23 -139 -35z" />
<glyph unicode="2" d="M135 1329l33 39l37 35q25 20 51 39q68 45 147 71q96 33 207 33q227 0 357 -127q121 -119 120 -311q0 -119 -57 -248q-51 -117 -153 -244q-92 -113 -228 -241q-59 -57 -131 -121q-63 -55 -141 -119h706v-135h-931v115q197 162 329 284q150 139 246 254q207 246 207 439 q0 319 -340 319q-82 0 -156 -29q-59 -20 -112 -61q-37 -27 -70 -64l-29 -32z" />
<glyph unicode="3" d="M129 174l96 96l43 -45q35 -31 76 -53q111 -63 240 -63q356 0 356 303q0 129 -84 209q-104 98 -317 94l-189 -2v139l168 -2q219 -4 318 76q84 68 84 204q0 281 -334 281q-68 0 -127 -18q-51 -14 -99 -43q-35 -20 -67 -50l-41 -40l-88 100l45 45q39 35 86 63q61 35 135 54 q88 25 188 24q207 0 330 -104q125 -106 125 -291q0 -92 -35 -168q-29 -61 -80 -106q-39 -35 -86 -60q-16 -8 -32 -14q-10 -6 -21 -8l58 -23q51 -27 92 -63q55 -51 86 -119q39 -84 39 -189q0 -198 -133 -313t-363 -115q-111 0 -203 27q-76 20 -139 59q-49 29 -86 66 q-14 14 -25 29z" />
<glyph unicode="4" d="M61 375v106l662 1039h197v-1010h241v-135h-241v-375h-148v375h-711zM240 510h532v836z" />
<glyph unicode="5" d="M156 88l80 117l34 -25q31 -18 64 -30q94 -41 209 -41q391 0 391 346t-391 346q-162 0 -307 -39v758h786v-136h-639v-460q78 12 186 12q518 0 518 -471q0 -226 -143 -359q-145 -133 -385 -133q-92 0 -174 17q-66 12 -121 35q-41 16 -74 38q-12 6 -22 15z" />
<glyph unicode="6" d="M160 487q0 154 28 289q27 123 76 232q47 98 111 182q55 76 127 139q59 53 127 98q57 37 116 66q45 20 89 37l45 16l61 -123l-39 -14q-31 -12 -61 -27q-92 -45 -170 -100q-104 -76 -176 -170q-88 -115 -125 -252q41 29 75 47q43 23 91 35q57 14 120 14q233 0 363 -133 q129 -131 129 -358q0 -228 -129 -359q-129 -133 -363 -133q-496 0 -495 514zM313 465q0 -356 342 -356q338 0 338 356t-338 356q-342 0 -342 -356z" />
<glyph unicode="7" d="M168 1384v136h930v-109l-592 -1411h-162l586 1384h-762z" />
<glyph unicode="8" d="M137 414q0 96 33 174q27 66 74 114q37 39 84 66q18 10 37 16q14 6 26 9q-25 8 -55 28q-39 27 -72 64q-37 47 -59 102q-25 68 -25 146q0 201 127 311q121 102 326 102t325 -102q127 -111 127 -311q0 -78 -24 -146q-23 -55 -60 -102q-33 -37 -71 -64q-31 -20 -56 -28 q12 -2 27 -9q18 -6 37 -16q47 -27 84 -66q47 -49 74 -114q33 -78 32 -174q0 -215 -147 -334q-133 -106 -348 -107q-215 0 -348 107q-147 119 -148 334zM291 414q0 -154 96 -234q88 -72 246 -71q158 0 246 71q96 80 96 234q0 307 -342 307t-342 -307zM334 1133 q0 -276 299 -277q299 0 299 277q0 278 -299 278t-299 -278z" />
<glyph unicode="9" d="M129 1055q0 229 125 358q127 133 358 133q483 0 484 -514q0 -156 -29 -293q-25 -125 -74 -233q-45 -98 -108 -180q-55 -76 -123 -138q-59 -53 -129 -96q-55 -35 -117 -63q-43 -20 -90 -39l-49 -17l-62 123l107 43q92 41 166 94q102 72 172 166q88 115 127 260 q-33 -29 -70 -49q-41 -20 -86 -32q-57 -14 -119 -15q-231 0 -358 133q-125 129 -125 359zM283 1055q0 -356 329 -357q330 0 330 357q0 356 -330 356t-329 -356z" />
<glyph unicode=":" horiz-adv-x="614" d="M186 100q0 123 121 123t121 -123t-121 -123t-121 123zM186 920q0 123 121 122q121 0 121 -122q0 -123 -121 -123t-121 123z" />
<glyph unicode=";" horiz-adv-x="614" d="M164 -203q6 2 22 19l39 43q51 68 51 123q-84 18 -83 118q0 123 120 123q121 0 121 -149q0 -80 -31 -152q-23 -57 -65 -106q-31 -35 -70 -64l-22 -18l-13 -6zM193 920q0 123 120 122q121 0 121 -122q0 -123 -121 -123t-120 123z" />
<glyph unicode="&#x3c;" d="M272 727l531 594l108 -100l-454 -494l454 -496l-108 -98z" />
<glyph unicode="=" d="M121 418v127h1024v-127h-1024zM121 909v127h1024v-127h-1024z" />
<glyph unicode="&#x3e;" d="M354 231l455 496l-455 494l109 100l530 -594l-530 -594z" />
<glyph unicode="?" horiz-adv-x="860" d="M82 1481q51 29 108 43q72 20 156 20q465 0 465 -442q0 -164 -111 -283q-111 -117 -292 -151v-256h-127v372q154 0 260 80q117 86 116 238q0 315 -321 315q-53 0 -119 -18q-51 -14 -84 -33zM233 90q0 113 111 113t111 -113t-111 -113t-111 113z" />
<glyph unicode="@" horiz-adv-x="1726" d="M143 553q0 420 209 655q209 236 588 236q643 0 643 -610q1 -262 -108 -426t-283 -164q-82 0 -137 59q-59 63 -51 158q-27 -76 -74 -125q-37 -43 -86 -66q-57 -25 -105 -26q-217 0 -217 291q0 268 119 415q113 141 309 142q55 0 121 -9q51 -8 115 -22l-70 -490 q-29 -201 96 -200q96 0 162 112q76 125 76 340q0 270 -158 391q-70 55 -170 80q-88 23 -202 23q-633 0 -633 -752q0 -567 547 -567l67 4q37 2 66 6q66 8 114 23q63 18 101 45l41 -119q-47 -25 -107 -43q-61 -18 -127 -31q-80 -12 -166 -12q-680 0 -680 682zM657 559 q0 -188 107 -188q104 0 178 172q63 150 98 413q-44 13 -110 13q-272 0 -273 -410z" />
<glyph unicode="A" horiz-adv-x="1259" d="M20 0l529 1520h164l526 -1520h-156l-143 410h-618l-144 -410h-158zM367 545h528l-264 760z" />
<glyph unicode="B" horiz-adv-x="1261" d="M164 0v1520h422q508 0 508 -392q0 -82 -25 -147q-20 -53 -57 -94q-29 -33 -66 -56q-12 -8 -24 -14l-19 -6q12 -2 29 -8l39 -15q53 -25 96 -63q55 -51 86 -121q37 -84 37 -192q0 -212 -141 -316q-129 -96 -353 -96h-532zM311 135h371q174 0 258 62q98 70 98 233 q0 293 -331 293h-396v-588zM311 858h312q319 0 319 262q0 264 -356 264h-275v-526z" />
<glyph unicode="C" horiz-adv-x="1310" d="M123 760q0 786 602 786q115 0 211 -26q78 -23 139 -62q45 -27 80 -61l29 -33l-90 -98l-9 8q-8 10 -18 18q-29 29 -66 49q-49 31 -108 50q-72 20 -156 20q-233 0 -344 -147q-117 -156 -117 -504q0 -350 119 -504q113 -147 357 -147q86 0 161 20q61 18 113 49q37 20 66 49 q10 8 18 19l8 8l90 -94l-4 -4q-2 -4 -6 -6l-20 -23q-37 -37 -84 -64q-63 -41 -144 -61q-96 -29 -211 -29q-616 0 -616 787z" />
<glyph unicode="D" horiz-adv-x="1368" d="M184 0v1520h461q285 0 445 -193q166 -199 165 -567q1 -368 -165 -567q-160 -193 -445 -193h-461zM332 135h278q492 0 492 625q0 624 -492 624h-278v-1249z" />
<glyph unicode="E" horiz-adv-x="1259" d="M184 0v1520h953v-136h-805v-534h676v-135h-676v-580h805v-135h-953z" />
<glyph unicode="F" horiz-adv-x="1136" d="M184 0v1520h912v-136h-764v-534h635v-135h-635v-715h-148z" />
<glyph unicode="G" horiz-adv-x="1390" d="M123 760q0 786 637 786q121 0 223 -28q82 -20 147 -62q49 -27 87 -63l30 -33l-88 -98l-26 28q-31 27 -70 49q-53 33 -117 50q-77 22 -164 22h-8q-254 0 -371 -143q-127 -156 -127 -508q0 -350 132 -508q123 -145 383 -146q100 0 184 21q68 18 125 51v498h-391v135h538 v-707q-29 -23 -65 -41q-45 -25 -99 -43q-66 -23 -135 -32q-82 -14 -172 -15q-653 0 -653 787z" />
<glyph unicode="H" horiz-adv-x="1495" d="M184 0v1520h148v-670h831v670h148v-1520h-148v715h-831v-715h-148z" />
<glyph unicode="I" horiz-adv-x="516" d="M184 0v1520h148v-1520h-148z" />
<glyph unicode="J" horiz-adv-x="927" d="M10 68l76 118l47 -28q14 -8 29 -15q76 -34 155 -34h5q274 0 274 268v1143h147v-1174q0 -72 -14 -127q-18 -70 -59 -121q-47 -59 -125 -90q-90 -35 -217 -35q-74 0 -140 13q-51 12 -96 30q-18 8 -33 17q-14 8 -24 16q-10 6 -17 12z" />
<glyph unicode="K" horiz-adv-x="1257" d="M184 0v1520h148v-723l686 723h201l-711 -750l729 -770h-203l-702 741v-741h-148z" />
<glyph unicode="L" horiz-adv-x="1095" d="M184 0v1520h148v-1385h743v-135h-891z" />
<glyph unicode="M" horiz-adv-x="1851" d="M184 0v1520h207l537 -1039l536 1039h203v-1520h-147v1309l-541 -1016h-107l-540 1016v-1309h-148z" />
<glyph unicode="N" horiz-adv-x="1542" d="M184 0v1520h185l841 -1313v1313h148v-1520h-184l-842 1313v-1313h-148z" />
<glyph unicode="O" horiz-adv-x="1462" d="M123 760q0 168 24 297q29 147 93 250q70 115 184 174q125 65 302 65h5q180 0 307 -65q115 -59 185 -174q63 -102 92 -250q24 -124 24 -284v-12.5v-13.5q0 -160 -24 -284q-29 -147 -92 -250q-70 -115 -185 -174q-127 -66 -307 -66t-307 66q-115 59 -184 174 q-63 102 -93 250q-24 124 -24 284v13zM276 760q0 -365 123 -518q104 -133 332 -133q227 0 332 133q123 154 123 518t-123 518q-104 133 -332 133q-227 0 -332 -133q-123 -154 -123 -518z" />
<glyph unicode="P" horiz-adv-x="1253" d="M184 0v1520h506q512 0 512 -480q0 -477 -512 -477h-358v-563h-148zM332 698h327q389 0 390 342q-1 344 -390 344h-327v-686z" />
<glyph unicode="Q" horiz-adv-x="1462" d="M123 760q0 168 24 297q29 147 93 250q70 115 184 174q125 65 302 65h5q180 0 307 -65q115 -59 185 -174q63 -102 92 -250q24 -124 24 -284v-13q0 -141 -16 -252q-20 -129 -61 -223q-98 -221 -324 -285l342 -193l-78 -126l-481 292q-176 0 -299 66q-113 59 -182 174 q-63 104 -93 252q-24 124 -24 282v13zM276 760q0 -365 123 -518q104 -133 332 -133q227 0 332 133q123 154 123 518t-123 518q-104 133 -332 133q-227 0 -332 -133q-123 -154 -123 -518z" />
<glyph unicode="R" horiz-adv-x="1320" d="M184 0v1520h506q512 0 512 -459q0 -315 -262 -420l340 -641h-168l-319 604h-461v-604h-148zM332 739h395q322 0 322 322q-1 323 -390 323h-327v-645z" />
<glyph unicode="S" horiz-adv-x="1167" d="M61 168l97 104q16 -20 47 -47q39 -29 88 -53q57 -29 121 -45q74 -18 153 -18q352 0 353 264q0 109 -66 174q-63 63 -233 133l-91 37q-57 23 -90 37q-100 43 -161 84q-80 53 -119 118q-45 76 -45 177q0 413 495 413h2q102 0 191 -24q74 -20 137 -56q47 -27 86 -61l41 -41 l-92 -100l-37 34q-33 27 -70 50q-51 29 -104 45q-68 18 -141 18q-352 0 -353 -258q0 -102 68 -166q61 -57 231 -125l181 -74q100 -45 161 -90q78 -57 119 -125q45 -80 45 -180q0 -190 -139 -305q-141 -115 -379 -115q-102 0 -199 25q-80 20 -149 57q-55 31 -100 66l-31 26z " />
<glyph unicode="T" horiz-adv-x="1132" d="M20 1384v136h1092v-136h-471v-1384h-147v1384h-474z" />
<glyph unicode="U" horiz-adv-x="1486" d="M184 516v1004h148v-979q0 -213 92 -318q99 -114 315 -114h4q219 0 320 114q92 104 92 318v979h148v-1004q0 -244 -123 -383q-141 -160 -437 -160q-295 0 -436 160q-123 139 -123 383z" />
<glyph unicode="V" horiz-adv-x="1204" d="M20 1520h156l428 -1313l426 1313h154l-508 -1520h-150z" />
<glyph unicode="W" horiz-adv-x="1951" d="M20 1520h154l344 -1327l367 1327h186l369 -1327l340 1327h151l-403 -1520h-176l-373 1333l-375 -1333h-180z" />
<glyph unicode="X" horiz-adv-x="1218" d="M20 0l494 784l-473 736h178l387 -619l379 619h176l-465 -740l502 -780h-178l-416 664l-407 -664h-177z" />
<glyph unicode="Y" horiz-adv-x="1220" d="M20 1520h168l424 -779l422 779h166l-516 -932v-588h-147v588z" />
<glyph unicode="Z" horiz-adv-x="1214" d="M102 0v145l842 1239h-817v136h985v-146l-842 -1239h836v-135h-1004z" />
<glyph unicode="[" horiz-adv-x="614" d="M184 -420v2165h338v-127h-211v-1911h211v-127h-338z" />
<glyph unicode="\" horiz-adv-x="1024" d="M82 1704l123 41l737 -2124l-123 -41z" />
<glyph unicode="]" horiz-adv-x="614" d="M92 -293h211v1911h-211v127h338v-2165h-338v127z" />
<glyph unicode="^" d="M205 727l360 793h135l361 -793l-107 -49l-321 723l-322 -723z" />
<glyph unicode="_" horiz-adv-x="901" d="M20 -104h861v-107h-861v107z" />
<glyph unicode="`" horiz-adv-x="1134" d="M342 1518l109 108l270 -297l-74 -76z" />
<glyph unicode="a" horiz-adv-x="1062" d="M92 326q0 331 381 331h2h270v109q0 229 -247 229q-104 0 -197 -45q-29 -14 -57 -35l-29 -22l-65 106l32 29q33 23 72 41q49 23 106 37q68 16 142 16q162 0 258 -63q123 -84 123 -262v-564q0 -72 37 -112q12 -14 28 -25l23 -12l-68 -107q-117 33 -143 142q-18 -41 -55 -72 t-89 -47q-61 -23 -141 -23q-172 0 -276 95q-106 96 -107 254zM236 328q0 -223 253 -224q76 0 132 21q47 14 79 43q33 27 45 65v297h-247q-262 0 -262 -202z" />
<glyph unicode="b" horiz-adv-x="1163" d="M164 0v1626h137v-690q23 53 64 92q43 41 100 66q72 28 162 28h6q438 0 438 -571q0 -574 -438 -574q-96 0 -168 27q-59 23 -100 62q-43 37 -64 88l-39 -154h-98zM305 551q0 -446 311 -447q311 0 312 447q-1 444 -312 444t-311 -444z" />
<glyph unicode="c" horiz-adv-x="972" d="M92 551q0 571 445 571q76 0 143 -18q53 -16 100 -43q35 -20 64 -45l24 -25l-75 -94l-23 21q-10 8 -22 14q-12 10 -29 18q-82 45 -172 45q-311 0 -311 -444q0 -446 315 -447q102 0 188 48q14 8 29 18q12 6 23 16l24 21l76 -92l-2 -2l-23 -23q-29 -27 -63 -47 q-49 -29 -109 -45q-74 -20 -157 -21q-444 0 -445 574z" />
<glyph unicode="d" horiz-adv-x="1183" d="M92 551q0 571 438 571q94 0 166 -28q57 -25 101 -66q45 -41 65 -92v690h137v-1626h-127v178q-20 -55 -65 -100t-105 -70q-74 -31 -172 -31q-438 0 -438 574zM236 551q0 -446 311 -447q311 0 311 447q0 444 -311 444t-311 -444z" />
<glyph unicode="e" horiz-adv-x="1083" d="M92 551q0 571 453 571q238 0 338 -164q88 -141 88 -440h-735q0 -414 348 -414q59 0 114 15q43 12 84 33q31 16 56 34q10 6 16 13l8 8l78 -94l-27 -25q-31 -27 -67 -47q-51 -29 -113 -43q-74 -20 -160 -21q-481 0 -481 574zM240 645h583q0 350 -274 350q-283 0 -309 -350z " />
<glyph unicode="f" horiz-adv-x="735" d="M41 973v127h176v196q0 68 8 115q12 68 41 115q76 123 275 123q76 0 141 -19l49 -16l35 -17l-45 -116l-64 24q-57 16 -112 17q-119 0 -160 -68q-31 -53 -31 -186v-168h377v-127h-377v-973h-137v973h-176z" />
<glyph unicode="g" horiz-adv-x="1183" d="M92 551q0 571 438 571q96 0 172 -30q59 -27 105 -70q45 -49 65 -100v178h127v-1268q0 -201 -139 -297q-123 -84 -338 -84q-260 0 -411 148l79 104q57 -51 127 -84q92 -41 197 -41q348 0 348 285v301q-23 -53 -65 -94q-43 -41 -101 -64q-72 -29 -166 -29q-438 0 -438 574z M236 551q0 -446 311 -447q311 0 311 447q0 444 -311 444t-311 -444z" />
<glyph unicode="h" horiz-adv-x="1157" d="M164 0v1626h137v-676q29 49 74 86q49 39 106 60q69 26 156 26h6q160 0 254 -82q106 -94 107 -280v-760h-138v735q0 260 -254 260q-141 0 -227 -88q-84 -86 -84 -229v-678h-137z" />
<glyph unicode="i" horiz-adv-x="509" d="M166 1462q0 94 90 94t90 -94q0 -92 -90 -92t-90 92zM186 0v1100h138v-1100h-138z" />
<glyph unicode="j" horiz-adv-x="514" d="M-246 -489l58 108l51 -25q43 -16 104 -16q223 0 223 252v1270h138v-1297q0 -352 -359 -352q-90 0 -155 27q-12 4 -23 10zM170 1462q0 94 90 94t90 -94q0 -92 -90 -92t-90 92z" />
<glyph unicode="k" horiz-adv-x="1044" d="M164 0v1626h137v-1042l504 516h180l-524 -531l563 -569h-180l-543 555v-555h-137z" />
<glyph unicode="l" horiz-adv-x="514" d="M164 287v1339h137v-1327q0 -195 162 -195v-127q-172 0 -238 78q-61 68 -61 232z" />
<glyph unicode="m" horiz-adv-x="1859" d="M164 0v1100h127v-164q29 53 74 92q49 43 106 66q73 28 164 28h6q94 0 166 -30q57 -25 100 -68q45 -43 66 -96q31 57 78 96q51 43 114 68q78 30 175 30h6q160 0 253 -82q106 -94 107 -280v-760h-137v735q0 260 -254 260q-311 0 -311 -311v-684h-138v735q0 260 -254 260 q-141 0 -227 -88q-84 -86 -84 -229v-678h-137z" />
<glyph unicode="n" horiz-adv-x="1157" d="M164 0v1100h127v-164q29 53 74 92q49 43 106 66q73 28 164 28h6q160 0 256 -82q106 -94 107 -280v-760h-138v735q0 260 -254 260q-141 0 -227 -88q-84 -86 -84 -229v-678h-137z" />
<glyph unicode="o" horiz-adv-x="1134" d="M567 1122q455 0 455 -571q0 -574 -455 -574q-454 0 -454 571q0 574 454 574zM256 551q0 -446 311 -447q311 0 312 447q-1 444 -312 444t-311 -444z" />
<glyph unicode="p" horiz-adv-x="1163" d="M164 -526v1626h127v-178q23 57 65 100q43 43 105 70q74 30 166 30h6q438 0 438 -571q0 -574 -438 -574q-94 0 -168 29q-57 23 -100 64q-41 37 -64 94v-690h-137zM305 551q0 -446 311 -447q311 0 312 447q-1 444 -312 444t-311 -444z" />
<glyph unicode="q" horiz-adv-x="1183" d="M92 551q0 571 438 571q94 0 166 -28q55 -20 101 -60q45 -43 65 -88l39 154h98v-1626h-137v690q-23 -53 -65 -94q-43 -41 -101 -64q-72 -29 -166 -29q-438 0 -438 574zM236 551q0 -446 311 -447q311 0 311 447q0 444 -311 444t-311 -444z" />
<glyph unicode="r" horiz-adv-x="720" d="M164 0v1100h127v-209q18 63 69 115q51 51 125 79q92 37 215 37v-145q-209 0 -309 -103q-90 -90 -90 -256v-618h-137z" />
<glyph unicode="s" horiz-adv-x="907" d="M61 147l99 89l33 -37q27 -25 57 -43q82 -51 188 -52q233 0 234 172q0 119 -193 197l-69 29q-39 14 -66 28q-72 31 -117 66q-110 81 -110 217q0 309 366 309q72 0 135 -18q51 -16 97 -43q33 -18 61 -43l25 -25l-84 -96l-21 18q-8 8 -20 17q-12 10 -27 18q-78 45 -174 45 q-215 0 -215 -166q0 -109 193 -186l139 -59q72 -35 117 -68q106 -86 106 -227q0 -312 -387 -312q-76 0 -145 21q-57 16 -109 47q-41 25 -74 57l-24 25q-8 10 -15 20z" />
<glyph unicode="t" horiz-adv-x="716" d="M41 973v127h176v246l137 18v-264h322v-127h-322v-654q0 -215 183 -215q31 0 65 7l47 12l27 -121q-8 -2 -12 -4l-17 -4q-20 -4 -39 -6q-51 -10 -100 -11q-291 0 -291 326v670h-176z" />
<glyph unicode="u" horiz-adv-x="1157" d="M154 342v758h137v-735q0 -260 254 -261q141 0 227 91q84 86 84 229v676h137v-1100h-129v164q-29 -55 -73 -94q-49 -41 -107 -64q-76 -29 -170 -29q-160 0 -254 84q-106 94 -106 281z" />
<glyph unicode="v" horiz-adv-x="997" d="M20 1100h148l332 -928l334 928h143l-406 -1100h-145z" />
<glyph unicode="w" horiz-adv-x="1665" d="M20 1100h146l287 -920l301 920h159l301 -920l289 920h142l-357 -1100h-149l-305 913l-308 -913h-151z" />
<glyph unicode="x" horiz-adv-x="999" d="M41 0l369 559l-355 541h164l279 -432l276 432h158l-348 -529l374 -571h-163l-299 463l-297 -463h-158z" />
<glyph unicode="y" horiz-adv-x="1001" d="M20 1100h148l346 -918l326 918h141l-395 -1075q-29 -76 -62 -142q-43 -80 -92 -141q-57 -70 -127 -115q-76 -51 -166 -65l-49 131q127 23 225 125q88 90 123 207z" />
<glyph unicode="z" horiz-adv-x="944" d="M82 0v109l612 864h-583v127h751v-109l-614 -864h604v-127h-770z" />
<glyph unicode="{" horiz-adv-x="614" d="M37 606v115q186 0 186 203q0 47 -6 102l-29 205q-6 57 -6 106q0 186 105 297q106 111 282 111l9 -115q-119 0 -193 -74q-76 -76 -76 -198q0 -41 6 -96l15 -103q10 -70 14 -108q6 -63 6 -115q0 -84 -31 -145q-23 -49 -63 -82q-29 -25 -63 -37q-29 -12 -29 -8t29 -9 q35 -12 63 -37q41 -33 63 -81q31 -61 31 -146q0 -51 -6 -115q-4 -41 -14 -108l-15 -105q-6 -55 -6 -96q0 -123 76 -196q74 -76 193 -76l-9 -115q-176 0 -282 111q-104 111 -105 297q0 49 6 106q4 37 15 105l14 102q6 55 6 102q0 203 -186 203z" />
<glyph unicode="|" horiz-adv-x="495" d="M184 -573v2471h127v-2471h-127z" />
<glyph unicode="}" horiz-adv-x="614" d="M37 -305q119 0 192 76q76 74 76 196q0 41 -6 96l-14 105q-10 68 -15 108q-6 63 -6 115q0 84 31 146q23 49 63 81q29 25 64 37q29 12 29 9q0 -4 -29 8q-35 12 -64 37q-41 33 -63 82q-31 61 -31 145q0 51 6 115q4 39 15 108l14 103q6 55 6 96q0 123 -76 198q-74 74 -192 74 l8 115q176 0 281 -111q106 -111 106 -297q0 -49 -6 -106l-29 -205q-6 -55 -6 -102q0 -203 187 -203v-115q-186 0 -187 -203q0 -47 6 -102l15 -102q10 -68 14 -105q6 -57 6 -106q0 -186 -106 -297q-104 -111 -281 -111z" />
<glyph unicode="~" d="M145 649l9 27q6 16 14 31q18 41 43 71q72 84 182 84q59 0 131 -22q45 -14 123 -49l58 -27q33 -14 57 -23q63 -23 108 -22q63 0 103 49q14 18 24 43q4 8 7 20q4 6 6 17l110 -43q-4 -12 -8 -27q-6 -16 -14 -30q-18 -41 -43 -72q-72 -84 -183 -84q-59 0 -129 22 q-47 14 -125 50l-59 26q-33 14 -55 23q-63 23 -109 22q-63 0 -102 -49q-14 -18 -25 -43q-4 -8 -6 -20q-4 -6 -6 -17z" />
<glyph unicode="&#xa1;" horiz-adv-x="385" d="M82 905q0 113 111 113t110 -113q1 -112 -110 -112t-111 112zM104 -524l29 1108h119l29 -1108h-177z" />
<glyph unicode="&#xa2;" d="M236 592q0 545 407 569v205h107v-205q63 -6 120 -24q47 -16 86 -41q16 -10 31 -23q12 -8 23 -18l14 -15q2 0 4 -4l2 -2l-76 -94l-20 18l-19 13q-10 8 -22 14q-66 39 -143 49v-887q90 6 163 50q12 6 25 14l39 35l76 -92l-9 -9q-6 -8 -14 -14q-25 -25 -53 -43 q-43 -27 -92 -43q-61 -20 -135 -27v-235h-107v235q-408 25 -407 574zM379 592q0 -410 264 -445v887q-264 -27 -264 -442z" />
<glyph unicode="&#xa3;" d="M133 0v135q104 4 176 64q55 47 88 127q33 78 39 176q0 47 -4 106l-8 109h-260v135h248l-15 158q-6 86 -6 155q0 166 105 269q115 113 319 112q84 0 156 -18q59 -14 108 -41q35 -20 64 -43l26 -25l-77 -106l-23 20l-53 33q-88 45 -191 45q-287 0 -286 -268q0 -55 6 -137 l14 -154h412v-135h-400q6 -82 9 -127q4 -72 4 -127q-4 -74 -25 -137q-20 -63 -57 -111q-47 -55 -113 -80h778v-135h-1034z" />
<glyph unicode="&#xa5;" d="M43 1520h168l424 -779l422 779h166l-371 -668h254v-117h-318l-81 -147h399v-117h-399v-471h-148v471h-399v117h399l-82 147h-317v117h254z" />
<glyph unicode="&#xa6;" horiz-adv-x="372" d="M123 543h127v-1116h-127v1116zM123 782v1116h127v-1116h-127z" />
<glyph unicode="&#xa7;" horiz-adv-x="1218" d="M102 -225l88 92l19 -21q14 -14 31 -26q37 -31 86 -56q57 -31 123 -47q76 -20 159 -20q379 0 379 283q0 113 -74 182q-66 61 -251 137l-185 76q-102 47 -168 92q-84 55 -125 123q-49 76 -49 170q0 176 133 297q-150 104 -149 274q0 414 497 414q102 0 191 -25 q74 -20 137 -55q47 -27 86 -61l41 -41l-84 -88l-6 6q-4 6 -8 8l-23 22q-33 29 -69 52q-51 29 -107 45q-70 20 -147 20q-379 0 -379 -276q0 -109 74 -172q63 -57 251 -131l93 -37l92 -41q102 -49 168 -97q84 -59 125 -129q49 -78 49 -174q0 -170 -131 -290q147 -113 147 -281 q0 -190 -139 -305q-141 -115 -379 -115q-102 0 -199 25q-80 20 -149 57q-55 31 -100 66l-31 26zM264 780q0 -186 346 -323q27 -12 68 -29l70 -27q80 -33 129 -61q94 82 94 211q0 201 -346 340q-8 2 -17 6l-112 45q-74 31 -125 55q-106 -82 -107 -217z" />
<glyph unicode="&#xa8;" horiz-adv-x="1134" d="M276 1462q0 94 91 94q90 0 90 -94q0 -92 -90 -92t-91 92zM678 1462q0 94 90 94t90 -94q0 -92 -90 -92t-90 92z" />
<glyph unicode="&#xa9;" horiz-adv-x="1454" d="M113 750q0 614 614 614t614 -614q0 -615 -614 -615t-614 615zM207 750q0 -520 520 -521q520 0 520 521q0 520 -520 520t-520 -520zM403 752q0 176 84 280q90 106 250 107q57 0 109 -15q41 -12 76 -32l26 -17l33 -28q4 -6 6 -7l-57 -69q-2 0 -6 4l-29 22l-21 13 q-59 35 -129 34q-233 0 -233 -292q0 -293 236 -293q76 0 141 35q12 6 22 14q8 4 17 12l18 15l58 -70q-4 -8 -19 -21q-8 -8 -20 -16q-12 -10 -27 -18q-37 -20 -82 -33q-55 -14 -119 -15q-166 0 -252 109q-82 102 -82 281z" />
<glyph unicode="&#xaa;" horiz-adv-x="802" d="M61 846q0 252 293 252h207v55q0 172 -186 172q-80 0 -148 -35l-63 -41l-60 97q8 8 27 20q27 18 57 33q88 39 191 39q125 0 203 -47q98 -63 98 -197v-406q0 -55 25 -83q8 -10 20 -17l16 -10l-61 -96q-86 25 -109 104q-14 -37 -53 -61q-27 -18 -72 -31q-43 -8 -92 -12 q-293 0 -293 264zM186 846q0 -154 187 -154q43 2 84 13q88 29 104 83v197h-182q-193 0 -193 -139z" />
<glyph unicode="&#xab;" horiz-adv-x="1110" d="M82 625l362 405h174l-372 -405l372 -406h-174zM492 625l362 405h174l-373 -405l373 -406h-174z" />
<glyph unicode="&#xac;" d="M102 909v127h1024v-639h-127v512h-897z" />
<glyph unicode="&#xad;" horiz-adv-x="593" d="M20 518v127h553v-127h-553z" />
<glyph unicode="&#xae;" horiz-adv-x="1454" d="M113 750q0 614 614 614t614 -614q0 -615 -614 -615t-614 615zM207 750q0 -520 520 -521q520 0 520 521q0 520 -520 520t-520 -520zM489 371v759h254q256 0 256 -229q0 -164 -125 -219l170 -311h-114l-158 291h-180v-291h-103zM592 752h170q131 0 131 149q0 139 -166 139 h-135v-288z" />
<glyph unicode="&#xaf;" horiz-adv-x="1093" d="M260 1393v127h574v-127h-574z" />
<glyph unicode="&#xb0;" horiz-adv-x="684" d="M41 1464q0 297 301 297t301 -297t-301 -297t-301 297zM168 1464q0 -174 174 -174t174 174t-174 174t-174 -174z" />
<glyph unicode="&#xb1;" d="M139 125v127h985v-127h-985zM139 840v127h424v444h137v-444h424v-127h-424v-445h-137v445h-424z" />
<glyph unicode="&#xb2;" horiz-adv-x="819" d="M74 1511l22 27q27 27 62 49q45 31 98 49q68 23 143 23q156 0 244 -88q82 -80 82 -211q0 -150 -131 -324q-57 -76 -143 -159q-74 -72 -175 -158h447v-117h-637v103q131 109 213 184q98 92 162 164q135 158 135 282q0 207 -213 207q-92 0 -170 -53l-57 -51l-4 -6z" />
<glyph unicode="&#xb3;" horiz-adv-x="819" d="M57 719l78 82l12 -13q8 -8 19 -14q23 -20 49 -35q72 -41 154 -41q225 0 225 191q0 80 -53 129q-66 61 -199 61l-133 -2v119l121 -2q135 -4 194 45q51 41 51 127q0 176 -204 176q-78 0 -144 -37l-45 -32l-26 -25l-74 84l29 31q29 25 61 43q43 25 92 36q61 16 129 17 q311 0 312 -270q0 -117 -78 -189q-27 -25 -60 -41q-10 -6 -22 -10l-15 -4l15 -6q12 -6 24 -11q35 -18 64 -43q39 -35 59 -81q27 -55 27 -130q0 -292 -340 -292q-74 0 -137 18q-53 14 -97 41q-35 20 -61 45z" />
<glyph unicode="&#xb4;" horiz-adv-x="1134" d="M461 1329l270 297l109 -108l-305 -265z" />
<glyph unicode="&#xb5;" horiz-adv-x="2048" d="M420 -199q37 125 72 236q43 135 92 276q35 313 184 740l145 -58q-170 -475 -170 -657q0 -84 31 -139q41 -68 100 -68q135 0 228 180q41 74 104 320l107 409l149 -34l-153 -574q-55 -205 -56 -221q0 -31 25 -53q14 -27 39 -27q72 0 201 186l104 -110q-49 -59 -86 -98 q-14 -16 -29 -29l-20 -19q-78 -66 -174 -65q-115 0 -174 110q-119 -113 -265 -112q-133 0 -206 106l-29 -88q-8 -18 -12 -35q-31 -90 -58 -176h-149z" />
<glyph unicode="&#xb6;" horiz-adv-x="1169" d="M123 1069q0 451 512 451h412v-1940h-138v1813h-137v-1813h-137v1038q-512 0 -512 451zM266 1069q0 -324 369 -324v648q-369 0 -369 -324z" />
<glyph unicode="&#xb7;" horiz-adv-x="614" d="M186 727q0 123 121 123t121 -123t-121 -123t-121 123z" />
<glyph unicode="&#xb8;" horiz-adv-x="1134" d="M375 -459l39 92l43 -18q43 -12 78 -12q113 0 112 82q0 104 -172 104l21 213h110l-12 -135q166 -43 166 -189q0 -182 -215 -182q-59 0 -117 21q-20 6 -37 14z" />
<glyph unicode="&#xb9;" horiz-adv-x="819" d="M129 1417q63 23 111 51q51 31 92 68q51 47 80 102h98v-919h219v-117h-594v117h248v708l-29 -22q-20 -14 -45 -27q-68 -37 -149 -57z" />
<glyph unicode="&#xba;" horiz-adv-x="827" d="M61 1010q0 428 353 428q352 0 352 -428t-352 -428t-353 428zM193 1010q0 -315 221 -316q221 0 221 316q0 315 -221 315t-221 -315z" />
<glyph unicode="&#xbb;" horiz-adv-x="1110" d="M82 219l373 406l-373 405h174l362 -405l-362 -406h-174zM492 219l372 406l-372 405h174l362 -405l-362 -406h-174z" />
<glyph unicode="&#xbc;" horiz-adv-x="1638" d="M123 1372q41 10 80 31q39 20 67 45q39 33 60 72h106v-693h168v-98h-475v98h190v525q-29 -33 -106 -62q-4 0 -8 -2l-25 -6q-18 -6 -33 -8zM233 8l1143 1573l94 -70l-1142 -1572zM926 188v80l331 523h136v-504h120v-99h-120v-188h-117v188h-350zM1053 287h223v350z" />
<glyph unicode="&#xbd;" horiz-adv-x="1638" d="M84 1372q41 10 80 31q39 20 67 45q39 33 60 72h106v-693h168v-98h-475v98h191v525q-29 -33 -107 -62q-4 0 -8 -2l-25 -6q-18 -6 -32 -8zM195 8l1142 1573l95 -70l-1143 -1572zM1020 682l20 23q25 23 54 40q39 25 82 39q55 16 114 17q125 0 197 -72q66 -66 65 -170 q0 -118 -96 -235q-41 -49 -108 -109l-136 -117h338v-98h-508v88q117 94 175 145q78 70 122 119q96 106 97 201q0 150 -160 149q-80 0 -143 -45l-37 -32l-15 -19z" />
<glyph unicode="&#xbe;" horiz-adv-x="1638" d="M115 823l65 74q8 -12 21 -23q16 -14 35 -26q53 -31 120 -31q152 0 152 127q0 53 -33 92q-45 51 -137 51h-96v99h86q94 0 137 41q33 33 33 88q0 117 -142 117q-63 0 -114 -31l-56 -43l-53 76q6 10 23 24q20 16 49 31q74 41 168 41q242 0 241 -205q0 -86 -59 -139 q-10 -10 -23 -19l-38 -20q-2 -2 -7 -2l-4 -2l4 -2q4 0 7 -2l18 -9q12 -6 23 -14q14 -8 26 -18q63 -59 64 -158q-1 -221 -263 -221q-104 0 -178 43q-14 8 -26 18l-21 17zM244 8l1142 1573l95 -70l-1143 -1572zM936 188v80l332 523h135v-504h121v-99h-121v-188h-117v188h-350z M1063 287h223v350z" />
<glyph unicode="&#xbf;" horiz-adv-x="892" d="M82 -106q0 164 111 282q111 117 292 152v256h127v-373q-154 0 -260 -78q-117 -88 -116 -239q0 -315 321 -316q53 0 119 19q51 14 84 32l51 -114q-51 -29 -106 -43q-74 -20 -158 -21q-465 0 -465 443zM438 905q0 113 111 113t110 -113q1 -112 -110 -112t-111 112z" />
<glyph unicode="&#xc0;" horiz-adv-x="1259" d="M20 0l529 1520h164l526 -1520h-156l-143 410h-618l-144 -410h-158zM367 545h528l-264 760zM401 1841l109 109l270 -248l-73 -76z" />
<glyph unicode="&#xc1;" horiz-adv-x="1259" d="M20 0l529 1520h164l526 -1520h-156l-143 410h-618l-144 -410h-158zM367 545h528l-264 760zM520 1702l271 248l108 -109l-305 -215z" />
<glyph unicode="&#xc2;" horiz-adv-x="1259" d="M20 0l529 1520h164l526 -1520h-156l-143 410h-618l-144 -410h-158zM305 1716l326 256l325 -256l-77 -90l-248 195l-248 -195zM367 545h528l-264 760z" />
<glyph unicode="&#xc3;" horiz-adv-x="1259" d="M20 0l529 1520h164l526 -1520h-156l-143 410h-618l-144 -410h-158zM276 1716q23 74 66 119q59 63 147 63q39 0 82 -20q16 -6 37 -18l72 -48q20 -12 35 -18q39 -20 71 -20q43 0 72 38q23 27 33 66l96 -43q-23 -74 -65 -119q-59 -63 -148 -63q-39 0 -82 20q-16 6 -37 19 l-71 47q-20 12 -35 18q-39 20 -72 21q-43 0 -71 -39q-23 -27 -33 -66zM367 545h528l-264 760z" />
<glyph unicode="&#xc4;" horiz-adv-x="1259" d="M20 0l529 1520h164l526 -1520h-156l-143 410h-618l-144 -410h-158zM340 1765q0 94 90 95q90 0 90 -95q0 -92 -90 -92t-90 92zM367 545h528l-264 760zM741 1765q0 94 90 95q90 0 91 -95q-1 -92 -91 -92t-90 92z" />
<glyph unicode="&#xc5;" horiz-adv-x="1259" d="M20 0l529 1520h164l526 -1520h-156l-143 410h-618l-144 -410h-158zM367 545h528l-264 760zM428 1800q0 172 203 172t203 -172q0 -174 -203 -174t-203 174zM530 1800q0 -76 101 -76q100 0 100 76q0 74 -100 74t-101 -74z" />
<glyph unicode="&#xc6;" horiz-adv-x="2064" d="M10 0l903 1520h1029v-136h-805v-534h675v-135h-675v-580h805v-135h-953v410h-565l-242 -410h-172zM498 545h491v823z" />
<glyph unicode="&#xc7;" horiz-adv-x="1290" d="M102 760q0 786 603 786q115 0 210 -26q78 -23 140 -62q45 -27 80 -61l28 -33l-90 -98l-8 8q-8 10 -18 18q-29 29 -66 49q-49 31 -109 50q-72 20 -155 20q-233 0 -344 -147q-117 -156 -117 -504q0 -350 119 -504q113 -147 356 -147q86 0 162 20q61 18 113 49q37 20 65 49 q10 8 19 19l8 8l90 -94l-8 -10l-19 -21q-33 -31 -74 -57q-57 -39 -126 -62q-86 -29 -187 -35l-10 -112q166 -43 166 -189q0 -182 -215 -182q-59 0 -117 21q-20 6 -37 14l-16 10l39 92l43 -18q43 -12 78 -12q113 0 112 82q0 104 -172 104l19 190q-561 33 -562 785z" />
<glyph unicode="&#xc8;" horiz-adv-x="1259" d="M184 0v1520h953v-136h-805v-534h676v-135h-676v-580h805v-135h-953zM432 1841l109 109l270 -248l-74 -76z" />
<glyph unicode="&#xc9;" horiz-adv-x="1259" d="M184 0v1520h953v-136h-805v-534h676v-135h-676v-580h805v-135h-953zM551 1702l270 248l109 -109l-305 -215z" />
<glyph unicode="&#xca;" horiz-adv-x="1259" d="M184 0v1520h953v-136h-805v-534h676v-135h-676v-580h805v-135h-953zM336 1716l326 256l325 -256l-78 -90l-247 195l-248 -195z" />
<glyph unicode="&#xcb;" horiz-adv-x="1259" d="M184 0v1520h953v-136h-805v-534h676v-135h-676v-580h805v-135h-953zM371 1765q0 94 90 95q90 0 90 -95q0 -92 -90 -92t-90 92zM772 1765q0 94 90 95q90 0 90 -95q0 -92 -90 -92t-90 92z" />
<glyph unicode="&#xcc;" horiz-adv-x="516" d="M-27 1841l109 109l270 -248l-73 -76zM184 0v1520h148v-1520h-148z" />
<glyph unicode="&#xcd;" horiz-adv-x="516" d="M164 1702l270 248l109 -109l-305 -215zM184 0v1520h148v-1520h-148z" />
<glyph unicode="&#xce;" horiz-adv-x="516" d="M-68 1716l326 256l326 -256l-78 -90l-248 195l-248 -195zM184 0v1520h148v-1520h-148z" />
<glyph unicode="&#xcf;" horiz-adv-x="516" d="M-33 1765q0 94 90 95q90 0 90 -95q0 -92 -90 -92t-90 92zM184 0v1520h148v-1520h-148zM369 1765q0 94 90 95q90 0 90 -95q0 -92 -90 -92t-90 92z" />
<glyph unicode="&#xd0;" horiz-adv-x="1382" d="M51 715v135h148v670h460q285 0 445 -193q166 -199 166 -567t-166 -567q-160 -193 -445 -193h-460v715h-148zM346 135h279q492 0 491 625q1 624 -491 624h-279v-534h338v-135h-338v-580z" />
<glyph unicode="&#xd1;" horiz-adv-x="1542" d="M184 0v1520h185l841 -1313v1313h148v-1520h-184l-842 1313v-1313h-148zM416 1716q23 74 65 119q59 63 148 63q39 0 82 -20q16 -6 37 -18l71 -48q20 -12 35 -18q39 -20 72 -20q43 0 71 38q23 27 33 66l96 -43q-23 -74 -65 -119q-59 -63 -148 -63q-39 0 -82 20 q-16 6 -36 19l-72 47q-20 12 -35 18q-39 20 -72 21q-43 0 -71 -39q-23 -27 -33 -66z" />
<glyph unicode="&#xd2;" horiz-adv-x="1462" d="M123 760q0 168 24 297q29 147 93 250q70 115 184 174q127 66 307 65q180 0 307 -65q115 -59 185 -174q63 -102 92 -250q25 -129 24 -297q1 -168 -24 -297q-29 -147 -92 -250q-70 -115 -185 -174q-127 -66 -307 -66t-307 66q-115 59 -184 174q-63 102 -93 250 q-25 129 -24 297zM276 760q0 -365 123 -518q104 -133 332 -133q227 0 332 133q123 154 123 518t-123 518q-104 133 -332 133q-227 0 -332 -133q-123 -154 -123 -518zM506 1841l108 109l271 -248l-74 -76z" />
<glyph unicode="&#xd3;" horiz-adv-x="1462" d="M123 760q0 168 24 297q29 147 93 250q70 115 184 174q127 66 307 65q180 0 307 -65q115 -59 185 -174q63 -102 92 -250q25 -129 24 -297q1 -168 -24 -297q-29 -147 -92 -250q-70 -115 -185 -174q-127 -66 -307 -66t-307 66q-115 59 -184 174q-63 102 -93 250 q-25 129 -24 297zM276 760q0 -365 123 -518q104 -133 332 -133q227 0 332 133q123 154 123 518t-123 518q-104 133 -332 133q-227 0 -332 -133q-123 -154 -123 -518zM625 1702l270 248l109 -109l-306 -215z" />
<glyph unicode="&#xd4;" horiz-adv-x="1462" d="M123 760q0 168 24 297q29 147 93 250q70 115 184 174q127 66 307 65q180 0 307 -65q115 -59 185 -174q63 -102 92 -250q25 -129 24 -297q1 -168 -24 -297q-29 -147 -92 -250q-70 -115 -185 -174q-127 -66 -307 -66t-307 66q-115 59 -184 174q-63 102 -93 250 q-25 129 -24 297zM276 760q0 -365 123 -518q104 -133 332 -133q227 0 332 133q123 154 123 518t-123 518q-104 133 -332 133q-227 0 -332 -133q-123 -154 -123 -518zM406 1716l325 256l326 -256l-78 -90l-248 195l-248 -195z" />
<glyph unicode="&#xd5;" horiz-adv-x="1462" d="M123 760q0 168 24 297q29 147 93 250q70 115 184 174q127 66 307 65q180 0 307 -65q115 -59 185 -174q63 -102 92 -250q25 -129 24 -297q1 -168 -24 -297q-29 -147 -92 -250q-70 -115 -185 -174q-127 -66 -307 -66t-307 66q-115 59 -184 174q-63 102 -93 250 q-25 129 -24 297zM276 760q0 -365 123 -518q104 -133 332 -133q227 0 332 133q123 154 123 518t-123 518q-104 133 -332 133q-227 0 -332 -133q-123 -154 -123 -518zM377 1716q23 74 65 119q59 63 148 63q39 0 82 -20q16 -6 37 -18l71 -48q20 -12 35 -18q39 -20 72 -20 q43 0 71 38q23 27 33 66l96 -43q-23 -74 -65 -119q-59 -63 -148 -63q-39 0 -81 20q-16 6 -37 19l-72 47q-20 12 -35 18q-39 20 -71 21q-43 0 -72 -39q-23 -27 -33 -66z" />
<glyph unicode="&#xd6;" horiz-adv-x="1462" d="M123 760q0 168 24 297q29 147 93 250q70 115 184 174q127 66 307 65q180 0 307 -65q115 -59 185 -174q63 -102 92 -250q25 -129 24 -297q1 -168 -24 -297q-29 -147 -92 -250q-70 -115 -185 -174q-127 -66 -307 -66t-307 66q-115 59 -184 174q-63 102 -93 250 q-25 129 -24 297zM276 760q0 -365 123 -518q104 -133 332 -133q227 0 332 133q123 154 123 518t-123 518q-104 133 -332 133q-227 0 -332 -133q-123 -154 -123 -518zM440 1765q0 94 90 95q90 0 91 -95q-1 -92 -91 -92t-90 92zM842 1765q0 94 90 95q90 0 90 -95 q0 -92 -90 -92t-90 92z" />
<glyph unicode="&#xd7;" d="M127 313l416 416l-416 416l90 90l416 -416l416 416l90 -90l-416 -416l416 -416l-90 -90l-416 416l-416 -416z" />
<glyph unicode="&#xd8;" horiz-adv-x="1462" d="M123 760q0 168 24 297q29 147 93 250q70 115 184 174q127 66 307 65q258 0 406 -135l98 135l88 -63l-113 -156q70 -104 103 -258q27 -131 26 -309q1 -168 -24 -297q-29 -147 -92 -250q-70 -115 -185 -174q-127 -66 -307 -66q-258 0 -405 136l-99 -136l-88 64l113 156 q-70 104 -102 258q-27 131 -27 309zM276 760q0 -283 72 -436l703 968q-109 119 -320 119q-227 0 -332 -133q-123 -154 -123 -518zM412 227q109 -119 319 -118q227 0 332 133q123 154 123 518q0 282 -72 436z" />
<glyph unicode="&#xd9;" horiz-adv-x="1486" d="M184 516v1004h148v-979q0 -213 92 -318q100 -115 319 -114q219 0 320 114q92 104 92 318v979h148v-1004q0 -244 -123 -383q-141 -160 -437 -160q-295 0 -436 160q-123 139 -123 383zM518 1841l109 109l270 -248l-74 -76z" />
<glyph unicode="&#xda;" horiz-adv-x="1486" d="M184 516v1004h148v-979q0 -213 92 -318q100 -115 319 -114q219 0 320 114q92 104 92 318v979h148v-1004q0 -244 -123 -383q-141 -160 -437 -160q-295 0 -436 160q-123 139 -123 383zM637 1702l270 248l109 -109l-305 -215z" />
<glyph unicode="&#xdb;" horiz-adv-x="1486" d="M184 516v1004h148v-979q0 -213 92 -318q100 -115 319 -114q219 0 320 114q92 104 92 318v979h148v-1004q0 -244 -123 -383q-141 -160 -437 -160q-295 0 -436 160q-123 139 -123 383zM418 1716l325 256l326 -256l-78 -90l-248 195l-247 -195z" />
<glyph unicode="&#xdc;" horiz-adv-x="1486" d="M184 516v1004h148v-979q0 -213 92 -318q100 -115 319 -114q219 0 320 114q92 104 92 318v979h148v-1004q0 -244 -123 -383q-141 -160 -437 -160q-295 0 -436 160q-123 139 -123 383zM453 1765q0 94 90 95q90 0 90 -95q0 -92 -90 -92t-90 92zM854 1765q0 94 90 95 q90 0 90 -95q0 -92 -90 -92t-90 92z" />
<glyph unicode="&#xdd;" horiz-adv-x="1220" d="M20 1520h168l424 -779l422 779h166l-516 -932v-588h-147v588zM500 1702l270 248l109 -109l-306 -215z" />
<glyph unicode="&#xde;" horiz-adv-x="1181" d="M184 0v1520h148v-287h256q492 0 491 -438q1 -439 -491 -439h-256v-356h-148zM332 492h225q369 0 369 303t-369 303h-225v-606z" />
<glyph unicode="&#xdf;" horiz-adv-x="1196" d="M164 0v1217q0 432 444 432q195 0 310 -97q104 -88 104 -219q0 -119 -74 -196q-29 -31 -71 -62l-80 -47q-74 -43 -105 -78q-45 -49 -45 -114q0 -125 152 -197q6 -4 16 -8l47 -23q35 -16 60 -30q68 -35 108 -70q104 -88 105 -223q-1 -142 -99 -226q-98 -86 -264 -86 q-70 0 -131 21q-55 16 -102 49q-37 25 -68 55l-22 25l-15 20l98 88q10 -18 29 -36q20 -25 49 -43q76 -51 170 -52q211 0 211 172q0 117 -170 197l-123 59q-63 35 -102 70q-92 84 -92 223q0 119 74 197q29 31 71 61l80 47q74 43 105 78q45 49 45 115q0 203 -275 203 q-303 0 -303 -334v-1188h-137z" />
<glyph unicode="&#xe0;" horiz-adv-x="1062" d="M92 326q0 332 383 331h270v109q0 229 -247 229q-104 0 -197 -45q-29 -14 -57 -35l-29 -22l-65 106l32 29q33 23 72 41q49 23 106 37q68 16 142 16q162 0 258 -63q123 -84 123 -262v-564q0 -72 37 -112q12 -14 28 -25l23 -12l-68 -107q-117 33 -143 142q-18 -41 -55 -72 t-89 -47q-61 -23 -141 -23q-172 0 -276 95q-106 96 -107 254zM236 328q0 -223 253 -224q76 0 132 21q47 14 79 43q33 27 45 65v297h-247q-262 0 -262 -202zM272 1518l109 108l270 -297l-73 -76z" />
<glyph unicode="&#xe1;" horiz-adv-x="1062" d="M92 326q0 332 383 331h270v109q0 229 -247 229q-104 0 -197 -45q-29 -14 -57 -35l-29 -22l-65 106l32 29q33 23 72 41q49 23 106 37q68 16 142 16q162 0 258 -63q123 -84 123 -262v-564q0 -72 37 -112q12 -14 28 -25l23 -12l-68 -107q-117 33 -143 142q-18 -41 -55 -72 t-89 -47q-61 -23 -141 -23q-172 0 -276 95q-106 96 -107 254zM236 328q0 -223 253 -224q76 0 132 21q47 14 79 43q33 27 45 65v297h-247q-262 0 -262 -202zM391 1329l271 297l108 -108l-305 -265z" />
<glyph unicode="&#xe2;" horiz-adv-x="1062" d="M92 326q0 332 383 331h270v109q0 229 -247 229q-104 0 -197 -45q-29 -14 -57 -35l-29 -22l-65 106l32 29q33 23 72 41q49 23 106 37q68 16 142 16q162 0 258 -63q123 -84 123 -262v-564q0 -72 37 -112q12 -14 28 -25l23 -12l-68 -107q-117 33 -143 142q-18 -41 -55 -72 t-89 -47q-61 -23 -141 -23q-172 0 -276 95q-106 96 -107 254zM174 1331l330 318l330 -318l-82 -78l-248 244l-248 -244zM236 328q0 -223 253 -224q76 0 132 21q47 14 79 43q33 27 45 65v297h-247q-262 0 -262 -202z" />
<glyph unicode="&#xe3;" horiz-adv-x="1062" d="M92 326q0 332 383 331h270v109q0 229 -247 229q-104 0 -197 -45q-29 -14 -57 -35l-29 -22l-65 106l32 29q33 23 72 41q49 23 106 37q68 16 142 16q162 0 258 -63q123 -84 123 -262v-564q0 -72 37 -112q12 -14 28 -25l23 -12l-68 -107q-117 33 -143 142q-18 -41 -55 -72 t-89 -47q-61 -23 -141 -23q-172 0 -276 95q-106 96 -107 254zM154 1343q23 74 65 119q59 63 148 64q39 0 82 -21q16 -6 36 -18l72 -47q20 -12 35 -19q39 -20 72 -20q43 0 71 39q23 27 33 65l96 -43q-23 -74 -65 -119q-59 -63 -148 -63q-39 0 -82 20q-16 6 -37 19l-71 47 q-20 12 -35 18q-39 20 -72 21q-43 0 -71 -39q-23 -27 -33 -66zM236 328q0 -223 253 -224q76 0 132 21q47 14 79 43q33 27 45 65v297h-247q-262 0 -262 -202z" />
<glyph unicode="&#xe4;" horiz-adv-x="1062" d="M92 326q0 332 383 331h270v109q0 229 -247 229q-104 0 -197 -45q-29 -14 -57 -35l-29 -22l-65 106l32 29q33 23 72 41q49 23 106 37q68 16 142 16q162 0 258 -63q123 -84 123 -262v-564q0 -72 37 -112q12 -14 28 -25l23 -12l-68 -107q-117 33 -143 142q-18 -41 -55 -72 t-89 -47q-61 -23 -141 -23q-172 0 -276 95q-106 96 -107 254zM213 1462q0 94 90 94t90 -94q0 -92 -90 -92t-90 92zM236 328q0 -223 253 -224q76 0 132 21q47 14 79 43q33 27 45 65v297h-247q-262 0 -262 -202zM614 1462q0 94 91 94q90 0 90 -94q0 -92 -90 -92t-91 92z" />
<glyph unicode="&#xe5;" horiz-adv-x="1062" d="M92 326q0 332 383 331h270v109q0 229 -247 229q-104 0 -197 -45q-29 -14 -57 -35l-29 -22l-65 106l32 29q33 23 72 41q49 23 106 37q68 16 142 16q162 0 258 -63q123 -84 123 -262v-564q0 -72 37 -112q12 -14 28 -25l23 -12l-68 -107q-117 33 -143 142q-18 -41 -55 -72 t-89 -47q-61 -23 -141 -23q-172 0 -276 95q-106 96 -107 254zM236 328q0 -223 253 -224q76 0 132 21q47 14 79 43q33 27 45 65v297h-247q-262 0 -262 -202zM305 1448q0 201 203 201t203 -201q0 -203 -203 -203t-203 203zM408 1448q0 -104 100 -105q100 0 100 105 q0 102 -100 102t-100 -102z" />
<glyph unicode="&#xe6;" horiz-adv-x="1716" d="M92 326q0 319 383 319h270v121q0 229 -247 229q-104 0 -197 -45q-29 -14 -57 -35l-29 -22l-65 106l32 29q33 23 72 41q49 23 106 37q68 16 142 16q119 0 198 -35q96 -43 142 -139q115 174 356 174q238 0 338 -164q88 -141 88 -440h-735q0 -414 348 -414q59 0 115 15 q43 12 84 33q31 16 55 34q10 6 16 13l9 8l77 -94l-26 -25q-31 -27 -68 -47q-51 -29 -113 -43q-74 -20 -159 -21q-270 0 -391 193l-13 -25l-20 -28q-27 -37 -64 -64q-47 -35 -106 -53q-72 -23 -158 -23q-172 0 -276 95q-106 96 -107 254zM236 328q0 -223 253 -224 q117 0 193 64q63 53 63 106v244h-247q-262 0 -262 -190zM893 645h584q0 350 -275 350q-283 0 -309 -350z" />
<glyph unicode="&#xe7;" horiz-adv-x="952" d="M92 551q0 571 445 571q76 0 143 -18q53 -16 100 -43q35 -20 64 -45l24 -25l-75 -94l-23 21q-10 8 -22 14q-12 10 -29 18q-82 45 -172 45q-311 0 -311 -444q0 -446 315 -447q102 0 188 48q14 8 29 18q12 6 23 16l24 21l76 -92l-8 -9q-6 -8 -15 -14q-23 -25 -53 -43 q-41 -27 -90 -43q-61 -20 -133 -26l-10 -113q166 -43 166 -189q0 -182 -216 -182q-59 0 -116 21q-20 6 -37 14l-17 10l39 92l43 -18q43 -12 78 -12q113 0 113 82q0 104 -172 104l18 191q-389 33 -389 571z" />
<glyph unicode="&#xe8;" horiz-adv-x="1083" d="M92 551q0 571 453 571q238 0 338 -164q88 -141 88 -440h-735q0 -414 348 -414q59 0 114 15q43 12 84 33q31 16 56 34q10 6 16 13l8 8l78 -94l-27 -25q-31 -27 -67 -47q-51 -29 -113 -43q-74 -20 -160 -21q-481 0 -481 574zM240 645h583q0 350 -274 350q-283 0 -309 -350z M324 1518l108 108l270 -297l-73 -76z" />
<glyph unicode="&#xe9;" horiz-adv-x="1083" d="M92 551q0 571 453 571q238 0 338 -164q88 -141 88 -440h-735q0 -414 348 -414q59 0 114 15q43 12 84 33q31 16 56 34q10 6 16 13l8 8l78 -94l-27 -25q-31 -27 -67 -47q-51 -29 -113 -43q-74 -20 -160 -21q-481 0 -481 574zM240 645h583q0 350 -274 350q-283 0 -309 -350z M442 1329l271 297l108 -108l-305 -265z" />
<glyph unicode="&#xea;" horiz-adv-x="1083" d="M92 551q0 571 453 571q238 0 338 -164q88 -141 88 -440h-735q0 -414 348 -414q59 0 114 15q43 12 84 33q31 16 56 34q10 6 16 13l8 8l78 -94l-27 -25q-31 -27 -67 -47q-51 -29 -113 -43q-74 -20 -160 -21q-481 0 -481 574zM219 1331l330 318l330 -318l-82 -78l-248 244 l-248 -244zM240 645h583q0 350 -274 350q-283 0 -309 -350z" />
<glyph unicode="&#xeb;" horiz-adv-x="1083" d="M92 551q0 571 453 571q238 0 338 -164q88 -141 88 -440h-735q0 -414 348 -414q59 0 114 15q43 12 84 33q31 16 56 34q10 6 16 13l8 8l78 -94l-27 -25q-31 -27 -67 -47q-51 -29 -113 -43q-74 -20 -160 -21q-481 0 -481 574zM240 645h583q0 350 -274 350q-283 0 -309 -350z M258 1462q0 94 90 94t90 -94q0 -92 -90 -92t-90 92zM659 1462q0 94 91 94q90 0 90 -94q0 -92 -90 -92t-91 92z" />
<glyph unicode="&#xec;" horiz-adv-x="509" d="M-35 1518l109 108l270 -297l-74 -76zM186 0v1100h138v-1100h-138z" />
<glyph unicode="&#xed;" horiz-adv-x="509" d="M166 1329l270 297l109 -108l-305 -265zM186 0v1100h138v-1100h-138z" />
<glyph unicode="&#xee;" horiz-adv-x="509" d="M-76 1331l330 318l330 -318l-82 -78l-248 244l-248 -244zM186 0v1100h138v-1100h-138z" />
<glyph unicode="&#xef;" horiz-adv-x="509" d="M-35 1462q0 94 90 94t90 -94q0 -92 -90 -92t-90 92zM186 0v1100h138v-1100h-138zM367 1462q0 94 90 94t90 -94q0 -92 -90 -92t-90 92z" />
<glyph unicode="&#xf0;" horiz-adv-x="1114" d="M92 551q0 571 455 571q129 0 223 -47q-61 156 -158 252l-317 -102l-33 92l270 86q-45 37 -94 65q-41 25 -84 43q-31 14 -61 25l-29 10l64 103q4 0 32 -11q41 -16 82 -36q57 -29 109 -64q66 -43 117 -92l258 84l32 -92l-221 -70q119 -137 187 -321q78 -221 77 -496 q1 -574 -454 -574t-455 574zM236 551q0 -446 311 -447q311 0 311 447q0 444 -311 444t-311 -444z" />
<glyph unicode="&#xf1;" horiz-adv-x="1157" d="M164 0v1100h127v-164q29 53 74 92q49 43 106 66q76 29 170 28q160 0 256 -82q106 -94 107 -280v-760h-138v735q0 260 -254 260q-141 0 -227 -88q-84 -86 -84 -229v-678h-137zM233 1343q23 74 66 119q59 63 147 64q39 0 82 -21q16 -6 37 -18l72 -47q20 -12 35 -19 q39 -20 71 -20q43 0 72 39q23 27 33 65l96 -43q-23 -74 -65 -119q-59 -63 -148 -63q-39 0 -82 20q-16 6 -37 19l-71 47q-20 12 -35 18q-39 20 -72 21q-43 0 -72 -39q-23 -27 -32 -66z" />
<glyph unicode="&#xf2;" horiz-adv-x="1093" d="M92 551q0 571 455 571t454 -571q1 -574 -454 -574t-455 574zM236 551q0 -446 311 -447q311 0 311 447q0 444 -311 444t-311 -444zM322 1518l108 108l270 -297l-73 -76z" />
<glyph unicode="&#xf3;" horiz-adv-x="1093" d="M92 551q0 571 455 571t454 -571q1 -574 -454 -574t-455 574zM236 551q0 -446 311 -447q311 0 311 447q0 444 -311 444t-311 -444zM440 1329l271 297l108 -108l-305 -265z" />
<glyph unicode="&#xf4;" horiz-adv-x="1093" d="M92 551q0 571 455 571t454 -571q1 -574 -454 -574t-455 574zM217 1331l330 318l330 -318l-82 -78l-248 244l-248 -244zM236 551q0 -446 311 -447q311 0 311 447q0 444 -311 444t-311 -444z" />
<glyph unicode="&#xf5;" horiz-adv-x="1093" d="M92 551q0 571 455 571t454 -571q1 -574 -454 -574t-455 574zM197 1343q23 74 65 119q59 63 148 64q39 0 82 -21q16 -6 36 -18l72 -47q20 -12 35 -19q39 -20 72 -20q43 0 71 39q23 27 33 65l96 -43q-23 -74 -65 -119q-59 -63 -148 -63q-39 0 -82 20q-16 6 -37 19l-71 47 q-20 12 -35 18q-39 20 -72 21q-43 0 -71 -39q-23 -27 -33 -66zM236 551q0 -446 311 -447q311 0 311 447q0 444 -311 444t-311 -444z" />
<glyph unicode="&#xf6;" horiz-adv-x="1093" d="M92 551q0 571 455 571t454 -571q1 -574 -454 -574t-455 574zM236 551q0 -446 311 -447q311 0 311 447q0 444 -311 444t-311 -444zM256 1462q0 94 90 94t90 -94q0 -92 -90 -92t-90 92zM657 1462q0 94 91 94q90 0 90 -94q0 -92 -90 -92t-91 92z" />
<glyph unicode="&#xf7;" d="M139 664v127h985v-127h-985zM532 344q0 102 101 102q100 0 100 -102t-100 -102t-101 102zM532 1110q0 102 101 102q100 0 100 -102t-100 -102t-101 102z" />
<glyph unicode="&#xf8;" horiz-adv-x="1093" d="M92 551q0 571 455 571q180 0 287 -88l63 88l86 -63l-78 -107q96 -145 96 -401q1 -574 -454 -574q-178 0 -285 89l-65 -89l-86 62l77 108q-96 145 -96 404zM236 551q0 -174 45 -279l471 650q-74 74 -205 73q-311 0 -311 -444zM342 178q74 -74 205 -74q311 0 311 447 q0 176 -43 276z" />
<glyph unicode="&#xf9;" horiz-adv-x="1157" d="M154 342v758h137v-735q0 -260 254 -261q141 0 227 91q84 86 84 229v676h137v-1100h-129v164q-29 -55 -73 -94q-49 -41 -107 -64q-76 -29 -170 -29q-160 0 -254 84q-106 94 -106 281zM344 1518l109 108l270 -297l-74 -76z" />
<glyph unicode="&#xfa;" horiz-adv-x="1157" d="M154 342v758h137v-735q0 -260 254 -261q141 0 227 91q84 86 84 229v676h137v-1100h-129v164q-29 -55 -73 -94q-49 -41 -107 -64q-76 -29 -170 -29q-160 0 -254 84q-106 94 -106 281zM463 1329l270 297l109 -108l-305 -265z" />
<glyph unicode="&#xfb;" horiz-adv-x="1157" d="M154 342v758h137v-735q0 -260 254 -261q141 0 227 91q84 86 84 229v676h137v-1100h-129v164q-29 -55 -73 -94q-49 -41 -107 -64q-76 -29 -170 -29q-160 0 -254 84q-106 94 -106 281zM240 1331l329 318l330 -318l-82 -78l-248 244l-247 -244z" />
<glyph unicode="&#xfc;" horiz-adv-x="1157" d="M154 342v758h137v-735q0 -260 254 -261q141 0 227 91q84 86 84 229v676h137v-1100h-129v164q-29 -55 -73 -94q-49 -41 -107 -64q-76 -29 -170 -29q-160 0 -254 84q-106 94 -106 281zM283 1462q0 94 90 94t90 -94q0 -92 -90 -92t-90 92zM684 1462q0 94 90 94t90 -94 q0 -92 -90 -92t-90 92z" />
<glyph unicode="&#xfd;" horiz-adv-x="1001" d="M20 1100h148l346 -918l326 918h141l-395 -1075q-29 -76 -62 -142q-43 -80 -92 -141q-57 -70 -127 -115q-76 -51 -166 -65l-49 131q127 23 225 125q88 90 123 207zM391 1329l271 297l108 -108l-305 -265z" />
<glyph unicode="&#xfe;" horiz-adv-x="1163" d="M164 -526v2152h137v-690q23 53 64 92q43 41 100 66q74 29 168 28q438 0 438 -571q0 -574 -438 -574q-94 0 -168 29q-57 23 -100 64q-41 37 -64 94v-690h-137zM305 551q0 -446 311 -447q311 0 312 447q-1 444 -312 444t-311 -444z" />
<glyph unicode="&#xff;" horiz-adv-x="1001" d="M20 1100h148l346 -918l326 918h141l-395 -1075q-29 -76 -62 -142q-43 -80 -92 -141q-57 -70 -127 -115q-76 -51 -166 -65l-49 131q127 23 225 125q88 90 123 207zM213 1462q0 94 90 94t90 -94q0 -92 -90 -92t-90 92zM614 1462q0 94 91 94q90 0 90 -94q0 -92 -90 -92 t-91 92z" />
<glyph unicode="&#x152;" horiz-adv-x="2158" d="M123 760q0 168 24 297q29 147 93 250q70 115 184 174q127 66 307 65q106 0 209 -26h1096v-136h-871q86 -92 129 -235q37 -127 43 -299h570v-135h-568q-4 -188 -41 -324q-43 -158 -133 -256h871v-135h-1096q-102 -27 -209 -27q-180 0 -307 66q-115 59 -184 174 q-63 102 -93 250q-25 129 -24 297zM276 760q0 -365 123 -518q104 -133 332 -133q227 0 332 133q123 154 123 518t-123 518q-104 133 -332 133q-227 0 -332 -133q-123 -154 -123 -518z" />
<glyph unicode="&#x153;" horiz-adv-x="1849" d="M113 551q0 571 454 571q276 0 383 -211q111 211 381 211q238 0 338 -164q88 -141 88 -440h-735q0 -414 348 -414q59 0 115 15q43 12 84 33q31 16 55 34q10 6 16 13l9 8l77 -94l-26 -25q-31 -27 -68 -47q-51 -29 -112 -43q-74 -20 -160 -21q-293 0 -410 218 q-111 -217 -383 -218q-455 0 -454 574zM256 551q0 -446 311 -447q311 0 312 447q-1 444 -312 444t-311 -444zM1026 645h584q0 350 -275 350q-283 0 -309 -350z" />
<glyph unicode="&#x178;" horiz-adv-x="1220" d="M20 1520h168l424 -779l422 779h166l-516 -932v-588h-147v588zM319 1765q0 94 91 95q90 0 90 -95q0 -92 -90 -92t-91 92zM721 1765q0 94 90 95q90 0 90 -95q0 -92 -90 -92t-90 92z" />
<glyph unicode="&#x2c6;" horiz-adv-x="1134" d="M238 1331l329 318l330 -318l-82 -78l-248 244l-248 -244z" />
<glyph unicode="&#x2dc;" horiz-adv-x="1134" d="M217 1343q23 74 66 119q59 63 147 64q39 0 82 -21q16 -6 37 -18l72 -47q20 -12 34 -19q39 -20 72 -20q43 0 72 39q23 27 32 65l97 -43q-23 -74 -66 -119q-59 -63 -147 -63q-39 0 -82 20q-16 6 -37 19l-72 47q-20 12 -35 18q-39 20 -71 21q-43 0 -72 -39q-23 -27 -33 -66z " />
<glyph unicode="&#x2000;" horiz-adv-x="986" />
<glyph unicode="&#x2001;" horiz-adv-x="1972" />
<glyph unicode="&#x2002;" horiz-adv-x="986" />
<glyph unicode="&#x2003;" horiz-adv-x="1972" />
<glyph unicode="&#x2004;" horiz-adv-x="657" />
<glyph unicode="&#x2005;" horiz-adv-x="493" />
<glyph unicode="&#x2006;" horiz-adv-x="328" />
<glyph unicode="&#x2007;" horiz-adv-x="328" />
<glyph unicode="&#x2008;" horiz-adv-x="246" />
<glyph unicode="&#x2009;" horiz-adv-x="394" />
<glyph unicode="&#x200a;" horiz-adv-x="109" />
<glyph unicode="&#x2010;" horiz-adv-x="593" d="M20 518v127h553v-127h-553z" />
<glyph unicode="&#x2011;" horiz-adv-x="593" d="M20 518v127h553v-127h-553z" />
<glyph unicode="&#x2012;" horiz-adv-x="593" d="M20 518v127h553v-127h-553z" />
<glyph unicode="&#x2013;" horiz-adv-x="942" d="M41 518v127h860v-127h-860z" />
<glyph unicode="&#x2014;" horiz-adv-x="1966" d="M0 518v127h1966v-127h-1966z" />
<glyph unicode="&#x2018;" horiz-adv-x="409" d="M78 1303q0 80 31 151q23 57 65 107q31 35 70 63l22 18l13 7l69 -70q-6 -2 -22 -18l-39 -43q-51 -68 -51 -123q84 -18 83 -119q0 -123 -120 -123q-121 0 -121 150z" />
<glyph unicode="&#x2019;" horiz-adv-x="409" d="M61 1200q6 2 23 19l39 43q51 68 51 122q-84 18 -84 119q0 123 121 123t121 -149q0 -80 -31 -152q-23 -57 -65 -106q-31 -35 -70 -64l-23 -18l-12 -7z" />
<glyph unicode="&#x201a;" horiz-adv-x="614" d="M164 -203q6 2 22 19l39 43q51 68 51 123q-84 18 -83 118q0 123 120 123q121 0 121 -149q0 -80 -31 -152q-23 -57 -65 -106q-31 -35 -70 -64l-22 -18l-13 -6z" />
<glyph unicode="&#x201c;" horiz-adv-x="778" d="M78 1303q0 80 31 151q23 57 65 107q31 35 70 63l22 18l13 7l69 -70q-6 -2 -22 -18l-39 -43q-51 -68 -51 -123q84 -18 83 -119q0 -123 -120 -123q-121 0 -121 150zM446 1303q0 80 31 151q23 57 66 107q31 35 69 63l23 18l12 7l70 -70q-6 -2 -23 -18l-39 -43 q-51 -68 -51 -123q84 -18 84 -119q0 -123 -121 -123t-121 150z" />
<glyph unicode="&#x201d;" horiz-adv-x="778" d="M61 1200q6 2 23 19l39 43q51 68 51 122q-84 18 -84 119q0 123 121 123t121 -149q0 -80 -31 -152q-23 -57 -65 -106q-31 -35 -70 -64l-23 -18l-12 -7zM430 1200q6 2 23 19l39 43q51 68 51 122q-84 18 -84 119q0 123 121 123t120 -149q1 -80 -30 -152q-23 -57 -66 -106 q-31 -35 -69 -64l-23 -18l-12 -7z" />
<glyph unicode="&#x201e;" horiz-adv-x="983" d="M164 -203q6 2 22 19l39 43q51 68 51 123q-84 18 -83 118q0 123 120 123q121 0 121 -149q0 -80 -31 -152q-23 -57 -65 -106q-31 -35 -70 -64l-22 -18l-13 -6zM532 -203q6 2 23 19l39 43q51 68 51 123q-84 18 -84 118q0 123 121 123t121 -149q0 -80 -31 -152 q-23 -57 -65 -106q-31 -35 -70 -64l-23 -18l-12 -6z" />
<glyph unicode="&#x2022;" horiz-adv-x="921" d="M244 625q0 221 217 221t217 -221q0 -222 -217 -222t-217 222z" />
<glyph unicode="&#x2026;" horiz-adv-x="2048" d="M221 100q0 123 121 123t121 -123t-121 -123t-121 123zM903 100q0 123 121 123t121 -123t-121 -123t-121 123zM1587 100q0 123 121 123t121 -123t-121 -123t-121 123z" />
<glyph unicode="&#x202f;" horiz-adv-x="394" />
<glyph unicode="&#x2039;" horiz-adv-x="700" d="M82 625l362 405h174l-372 -405l372 -406h-174z" />
<glyph unicode="&#x203a;" horiz-adv-x="700" d="M82 219l373 406l-373 405h174l362 -405l-362 -406h-174z" />
<glyph unicode="&#x205f;" horiz-adv-x="493" />
<glyph unicode="&#x20ac;" d="M49 588l41 106h86l-2 66q0 55 2 82h-127l41 106h94q70 598 594 598q117 0 209 -24q80 -23 139 -62l-59 -125q-49 33 -111 54q-76 23 -165 22q-197 0 -308 -106q-121 -115 -145 -357h582l-41 -106h-549q-2 -27 -2 -82q0 -43 2 -66h506l-41 -106h-455q45 -479 465 -479 q100 0 188 30q66 23 119 60l64 -119q-66 -45 -148 -72q-106 -35 -235 -35q-549 0 -609 615h-135z" />
<glyph unicode="&#x2122;" horiz-adv-x="2246" d="M20 1403v117h807v-117h-340v-920h-127v920h-340zM983 483v1037h180l353 -682l352 682h174v-1037h-127v867l-352 -666h-101l-352 666v-867h-127z" />
<glyph unicode="&#x25fc;" horiz-adv-x="1095" d="M0 0v1096h1096v-1096h-1096z" />
</font>
</defs>
</svg>
